<svg xmlns="http://www.w3.org/2000/svg" viewBox="0 0 32 32">
  <rect width="32" height="32" rx="6" fill="#1f2937"/>
  <!-- Berlin bear - side profile, rampant (standing on hind legs), facing right -->
  <path d="
    M 11 5
    Q 10 3 12 3
    Q 14 3 13 5
    L 13.5 7
    Q 16 5 18 6
    L 18 4
    Q 18 2.5 20 3
    Q 22 3 21 5
    L 19.5 7
    Q 22 8 22 11
    L 23 12
    Q 24 12.5 24 14
    Q 24 15 23 15
    L 22 14.5
    Q 21 16 20 17
    L 20 20
    Q 21 22 22 24
    L 23 27
    Q 23.5 28.5 22 28.5
    L 21 28.5
    Q 20.5 28 21 27
    L 20 24
    L 18 22
    L 16 24
    L 15 27
    Q 14.5 28 15 28.5
    L 13 28.5
    Q 11.5 28.5 12 27
    L 13 24
    Q 14 22 14 20
    L 13 17
    Q 11 15 10 12
    Q 9 10 10 8
    Z
  " fill="white"/>
  <!-- Eye -->
  <circle cx="15" cy="8" r="0.8" fill="#1f2937"/>
  <!-- Nose -->
  <circle cx="22.5" cy="13.5" r="0.6" fill="#1f2937"/>
</svg>
