<?xml version="1.0" encoding="UTF-8" standalone="no"?>
<svg
   viewBox="-100 0 2839.6604 4527.6567"
   version="1.1"
   id="svg6"
   sodipodi:docname="icon.svg"
   width="2839.6604"
   height="4527.6567"
   inkscape:version="1.4.2 (ebf0e940, 2025-05-08)"
   xmlns:inkscape="http://www.inkscape.org/namespaces/inkscape"
   xmlns:sodipodi="http://sodipodi.sourceforge.net/DTD/sodipodi-0.dtd"
   xmlns="http://www.w3.org/2000/svg"
   xmlns:svg="http://www.w3.org/2000/svg">
  <defs
     id="defs6">
    <linearGradient
       id="IconifyId17ecdb2904d178eab13617"
       gradientUnits="userSpaceOnUse"
       x1="115.708"
       y1="83.058998"
       x2="103.15"
       y2="52.919998"
       gradientTransform="matrix(-10.559046,0,0,10.559046,846.36143,-665.66573)">
      <stop
         offset="0"
         stop-color="#353738"
         id="stop8" />
      <stop
         offset="1"
         stop-color="#353738"
         stop-opacity="0"
         id="stop9" />
    </linearGradient>
    <linearGradient
       id="IconifyId17ecdb2904d178eab13617-4"
       gradientUnits="userSpaceOnUse"
       x1="115.708"
       y1="83.058998"
       x2="103.15"
       y2="52.919998">
      <stop
         offset="0"
         stop-color="#353738"
         id="stop8-8" />
      <stop
         offset="1"
         stop-color="#353738"
         stop-opacity="0"
         id="stop9-0" />
    </linearGradient>
  </defs>
  <sodipodi:namedview
     id="namedview6"
     pagecolor="#ffffff"
     bordercolor="#000000"
     borderopacity="0.25"
     inkscape:showpageshadow="2"
     inkscape:pageopacity="0.0"
     inkscape:pagecheckerboard="0"
     inkscape:deskcolor="#d1d1d1"
     inkscape:zoom="0.17590128"
     inkscape:cx="1341.6616"
     inkscape:cy="2018.1774"
     inkscape:window-width="1472"
     inkscape:window-height="895"
     inkscape:window-x="0"
     inkscape:window-y="33"
     inkscape:window-maximized="0"
     inkscape:current-layer="svg6" />
  <!-- Megaphone from megaphone.svg, transformed to fit bear's raised paw -->
  <path
     d="m 1917.1737,921.65668 c -56,-27 -157,-11 -250,-26 -187,-30 -210,-83 -210,-122 -1,-41 -38,-43 -38,1 1,260.00002 392,127 503,194 m -1277.00002,-136 c 1,-70 -47,-115 -89,-119 25,29 30,71 34,112 -8,-58 -51,-96 -88,-98 20,21 31,64 33,106 -6,-32 -36,-80 -86,-85 23,24 30,69 35,110 -7,-35 -43,-75 -83,-78 17,14 31,65 34,104 -5,-16 -33,-55 -77,-60 23,21 33,72 37,112 m 175,954.00002 c -12,-55 -60,-113 -114,-106 25,17 44,81 51,122 -17,-46 -59,-95 -109,-89 27,24 43,83 53,127 -27,-51 -60,-89 -109,-83 33,32 45,88 53,131 -16,-36 -53,-80 -103,-75 31,28 44,89 55,134 -20,-27 -50,-65 -97,-61 31,30 45,89 58,134 m 422,1723 c -53,-32 -126,-21 -160,23 38,-7 94,14 116,32 -36,-23 -111,-9 -140,31 34,-9 89,14 118,31 -38,-13 -97,-10 -134,35 31,-7 82,10 115,29 -47,-11 -93,7 -120,39 41,-9 87,15 115,28 -53,-1 -85,20 -104,42 34,-7 86,11 124,31 m 1461.00002,8 c -69,-9 -126,33 -143,82 19,-15 79,-24 118,-12 -54,-3 -108,41 -119,81 22,-18 92,-23 118,-12 -49,2 -96,39 -110,80 23,-15 87,-21 123,-12 -53,8 -91,46 -103,81 32,-21 74,-19 126,-16 -54,20 -72,43 -90,79 30,-19 83,-20 135,-16"
     fill="#f33b1d"
     id="path1"
     style="display:inline"
     inkscape:label="fingers" />
  <path
     d="m 1763.1737,505.65668 -244,9 c -12,1 -21,7 -21,21 1,88 18,145 81,191 -8,49 -3,74 48,115 5,-40 21,-58 46,-75 2,1 4,1 5,2 -3,18 -3,37 1,48 10,28 59,29 72,9 12,29 37,30 57,30 21,0 31,-15 38,-29 12,10 24,21 35,35 35,48 41,110 41,169.00002 l -33,3 v -24 c -1,-34.00002 -80,-40.00002 -98,-11.00002 -20,-22 -82,-18 -82,17.00002 v 11 c -14,-18 -25,-37.00002 -34,-56.00002 -25,16 -40,28 -36,85.00002 -11,1 -22,2 -32,3 1,66 30,84 266,79 6,66 -60,103 -109,134 -128,73 -263,153 -336,287 -61,106 -76,232 -69,354 l 70,-31 8,38 c -126,60 -356,182 -507.00002,252 -37,17 -133,41 -153,7 -69,-119 -124,-209 -204,-300 -41,-47 -313,178 -263,254 114,173 300,421 610,423 321.00002,2 600.00002,-116 661.00002,-134 l 13,41 c -41,18 -77,31 -120,45 56,220 121,306 272,440 l -31,23 c -27,-16 -73,-67 -98,-91 -321,152 -441,304 -518,461 -85,189 -69,404 -33,603 7,33 -29,49 -56,39 -74.00002,-17 -115.00002,-91 -186.00002,-118 -32,-14 -74,-30 -109,-24 -57,10 -118,298 -60,326 108,53 226,64 346.00002,126 79,32 155,84 245,70 51,-5 102,-40 107,-94 45,-194 108,-400 256,-540 71,-70 163,-126 254,-169 -36,-138 -63,-276 -60,-420 l 44,-2 c 32,548 178,663 435,918 26,26 24,75 -14,90 -50,25 -109,26 -166,29 -61,3 -15,341 75,338 158,-5 322,-128 417,-249 40,-50 88,-100 126,-149 47,-61 -4,-132 -18,-188 -39,-160 -57,-620 -59,-684 l 56,1 8,-116 c -167,-207 -140,-531 -209,-740 -27,-85 -57,-173 -57,-263 0,-122 138,-351 135,-555 -1,-86 -49,-198 -48,-249 1,-148 86,-116 84,-424.00002 -1,-85 -11,-148 -33,-235 149,-157 -56,-314 -174,-216 -95,-25 -107,-50 -293,-50 -159,0 -250,43 -349,109 m -288,918.00002 c -292,-86 -499.00002,-125 -615.00002,-213 -117,-89 -65,-285.00002 -206,-389.00002 -70,-52 -291,71 -257,124 217,338.00002 -73,419.00002 918.00002,985.00002 -4,-313 55,-378 160,-507"
     fill="#1a1a1a"
     id="path2"
     sodipodi:nodetypes="cccccccccsccccccscccccccccccccccccccccccccccccccccccccccccccccscccccsccccccc"
     style="display:inline"
     inkscape:label="bear" />
  <path
     d="m 2111.1737,695.65668 c -118,-187 -213,-206 -248,-71 -14,55 34,54 45,13 13,-46 35,-94 122,39 8,11 35,19 50,19 m 323,-98 c 28,-28 61,-52 100,-69 47,-16 23,-64 -36,-44 -40,13 -77,44 -101,76 m -776,173 c -9,31 2,66 29,85 5,-22 21,-42 38,-56 -31,-9 -52,-20 -67,-29 m 160,53 c -20,-6 -41,-10 -61,-15 -4,15 -4,31 -1,40 8,22 45,23 55,7 4,-6 7,-19 7,-32 m 12,3 c -3,12 -5,26 0,36 10,19 28,20 44,20 18,0 27,-12 32,-24 -23,-15 -49,-24 -76,-32 m -54,260.00002 v -7 c -14,-17 -26,-36 -37,-56.00002 -22,16.00002 -25,40.00002 -22,68.00002 m 140,-12 v -25 c -1,-31.00002 -71,-33.00002 -71,0 v 31.5 m 161,-14.5 v -22 c 0,-30.00002 -81,-32.00002 -81,1 v 28"
     fill="#ffffff"
     id="path3"
     inkscape:label="bear face" />
  <g
     id="g11"
     transform="matrix(-11.277316,0,0,11.277316,1298.4363,-116.50991)">
    <ellipse
       transform="rotate(-21.604,15.324,86.192)"
       cx="15.33"
       cy="86.199997"
       rx="9.8900003"
       ry="17.950001"
       fill="#b8dade"
       id="ellipse3" />
    <path
       d="m 26.58,94.5 c -1.96,-1.48 -7.27,2.58 -7.27,2.58 -0.68,4.75 -5.93,3.38 -5.93,3.38 2.89,2.44 5.98,3.44 8.56,2.42 2.74,-1.08 4.33,-4.25 4.64,-8.38 z"
       fill="#82aec0"
       id="path4" />
    <path
       d="M 80.96,14.59 13.37,69.62 c -2.68,1.84 -3.95,9.22 -0.63,17.6 3.32,8.38 9.4,13.24 12.58,12.18 l 86.86,-5.94 c 9.43,-3.73 10.08,-24.42 1.46,-46.2 C 105.02,25.48 90.39,10.86 80.96,14.59 Z"
       fill="#f44336"
       id="path5" />
    <path
       d="m 95.17,80.52 c 3.19,4.71 -1.91,4.92 -22.42,8.34 -5.61,0.94 -53.44,8.23 -53.44,8.23 1.29,1.19 3.87,3.04 6.07,2.33 0,0 85.21,-5.32 86.81,-5.95 z"
       fill="#c62828"
       id="path6" />
    <path
       d="m 73.39,27.74 c 1.4,-1.01 3.41,-2.57 3.89,-5.27 0.25,-1.41 0.43,-3.02 0.76,-3.71 0.65,-1.37 3.14,-4.51 3.14,-4.51 l -67.8,55.37 c -1.83,1.25 -2.09,3.34 -2.09,3.34 10.38,-7.78 51.78,-37.75 62.1,-45.22 z"
       fill="#c62828"
       id="path7" />
    <ellipse
       transform="rotate(-21.604,100.448,52.485)"
       cx="100.46"
       cy="52.490002"
       rx="18.08"
       ry="44.77"
       fill="#b8dade"
       id="ellipse7" />
    <ellipse
       transform="rotate(-21.604,102.614,51.627)"
       cx="102.62"
       cy="51.630001"
       rx="11.86"
       ry="37.150002"
       fill="#2f7889"
       id="ellipse8" />
    <path
       d="m 116.3,86.17 c 6.09,-2.41 4.9,-19.83 -2.65,-38.91 L 91.6,56 c 7.55,19.07 18.61,32.58 24.7,30.17 z"
       fill="url(#IconifyId17ecdb2904d178eab13617)"
       id="path9"
       style="fill:url(#IconifyId17ecdb2904d178eab13617-4)" />
    <path
       d="m 79.71,37.64 c -1.29,-5.68 -1.18,-10.86 -0.36,-14.91 0.23,-1.1 0.99,-2.42 2.12,-2.29 1.12,0.13 1.45,1.19 1.32,2.31 -0.44,3.82 -0.1,9.08 0.92,14.07 0.23,1.11 0.21,2.56 -1.36,3.12 -1.36,0.5 -2.41,-1.3 -2.64,-2.3 z"
       fill="#ffffff"
       id="path10" />
    <path
       d="M 15,75.47 70.73,37.95 c 1.7,-1.13 3.81,-3 4.23,0.76 0.26,2.34 0.56,4.36 0.35,7.4 -0.13,1.89 -3.84,3.35 -5,3.94 L 14.93,78.84 c -0.84,0.42 -2.4,0.81 -2.14,-0.7 0.29,-1.63 1.76,-2.37 2.21,-2.67 z"
       opacity="0.45"
       fill="#ffca28"
       id="path11" />
  </g>
</svg>
